<?xml version="1.0" encoding="iso-8859-1"?>
<!-- Generator: Adobe Illustrator 18.0.0, SVG Export Plug-In . SVG Version: 6.00 Build 0)  -->
<!DOCTYPE svg PUBLIC "-//W3C//DTD SVG 1.1//EN" "http://www.w3.org/Graphics/SVG/1.1/DTD/svg11.dtd">
<svg xmlns="http://www.w3.org/2000/svg" xmlns:xlink="http://www.w3.org/1999/xlink" version="1.1" id="Capa_1" x="0px" y="0px" viewBox="0 0 415.873 415.873" style="enable-background:new 0 0 415.873 415.873;" xml:space="preserve" width="512px" height="512px">
<g>
	<path d="M153.04,197.503l-38.857,11.778c3.8,49.279,45.114,88.215,95.352,88.215c49.916,0,91.015-38.44,95.267-87.271   l-41.97-12.722c-1.191-3.609-3.843-6.734-7.545-9.383c4.072-4.527,7.513-9.109,10.131-12.902   c6.203-8.997,11.368-18.688,14.941-28.037c1.762-3.942,3.265-7.9,4.479-11.786c4.813-4.031,7.646-10.061,7.646-16.379v-15.484   c0-4.445-1.396-8.79-3.967-12.391V69.342C288.517,31.104,257.411,0,219.175,0h-22.478c-38.235,0-69.342,31.104-69.342,69.342   v21.801c-2.569,3.6-3.967,7.948-3.967,12.389v15.484c0,6.316,2.834,12.337,7.647,16.379c1.214,3.877,2.717,7.843,4.478,11.792   c3.577,9.347,8.742,19.035,14.944,28.025c2.615,3.795,6.056,8.379,10.131,12.908C156.883,190.768,154.235,193.893,153.04,197.503z    M194.632,251.422c-0.188,1.816-1.469,3.335-3.229,3.823c-0.395,0.112-0.795,0.164-1.193,0.164c-1.372,0-2.694-0.639-3.547-1.768   l-12.49-16.566c-0.582-0.774-0.896-1.713-0.896-2.681l0.016-26.561c0.001-1.558,0.818-3.002,2.151-3.805   c1.336-0.803,2.994-0.85,4.371-0.121c3.635,1.923,7.266,3.213,10.789,3.839c2.121,0.376,3.668,2.222,3.668,4.376v11.083   c0.633,0.249,1.208,0.642,1.673,1.157c0.843,0.937,1.25,2.184,1.122,3.436L194.632,251.422z M242.577,234.399   c0,0.965-0.313,1.904-0.895,2.678L229.21,253.63c-0.852,1.133-2.176,1.769-3.548,1.769c-0.397,0-0.8-0.052-1.192-0.16   c-1.762-0.493-3.043-2.009-3.23-3.827l-2.434-23.611c-0.13-1.252,0.278-2.499,1.12-3.436c0.466-0.516,1.043-0.907,1.677-1.157   v-11.083c0-2.154,1.544-3.999,3.665-4.376c3.525-0.626,7.154-1.916,10.787-3.837c1.379-0.729,3.037-0.68,4.37,0.123   c1.337,0.803,2.153,2.248,2.153,3.805V234.399z M153.721,124.591l-0.242-1.84l-4.313-2.802c-1.261-0.821-2.021-2.223-2.021-3.728   v-7.318c0-2.452,1.989-4.445,4.443-4.445h1.816v-7.924c0-1.684,0.952-3.225,2.46-3.977c6.118-3.055,18.261-8.18,30.833-8.18   c10.031,0,18.35,3.336,24.724,9.92c7.938,8.205,17.093,12.367,27.202,12.367c5.724,0,11.642-1.352,17.583-4.017   c1.374-0.614,2.967-0.492,4.234,0.327c0.592,0.385,1.074,0.894,1.418,1.482h2.427c2.452,0,4.445,1.993,4.445,4.445v7.318   c0,1.506-0.763,2.907-2.025,3.729l-4.313,2.802l-0.238,1.83c-1.404,10.626-7.365,24.395-15.951,36.835   c-10.866,15.76-21.053,22.819-26.326,22.819h-23.878c-5.274,0-15.461-7.06-26.331-22.823   C161.085,148.977,155.124,135.21,153.721,124.591z" fill="#F0CB3A"/>
	<path d="M386.912,185.839h-40.717c-11.611,0-21.024,9.413-21.024,21.024c0,63.763-51.874,115.637-115.637,115.637   c-63.764,0-115.638-51.874-115.638-115.637c0-11.611-9.413-21.024-21.024-21.024h-43.91c-11.612,0-21.025,9.413-21.025,21.024   c0,11.611,9.413,21.024,21.025,21.024h24.281c3.52,26.302,13.551,50.57,28.41,71.131l-20.007,20.007   c-8.21,8.211-8.21,21.523,0,29.734c4.105,4.105,9.487,6.158,14.868,6.158c5.38,0,10.762-2.053,14.867-6.158l19.203-19.203   c21.521,17.39,47.692,29.238,76.326,33.37v31.922c0,11.611,9.413,21.024,21.025,21.024c11.611,0,21.024-9.413,21.024-21.024   v-31.497c29.093-3.59,55.753-15.135,77.737-32.385l17.794,17.793c4.104,4.105,9.486,6.158,14.866,6.158   c5.381,0,10.763-2.053,14.868-6.158c8.209-8.211,8.209-21.523,0-29.734l-18.167-18.167c15.602-20.947,26.141-45.878,29.766-72.971   h21.087c11.611,0,21.024-9.413,21.024-21.024C407.936,195.252,398.523,185.839,386.912,185.839z" fill="#F0CB3A"/>
</g>
<g>
</g>
<g>
</g>
<g>
</g>
<g>
</g>
<g>
</g>
<g>
</g>
<g>
</g>
<g>
</g>
<g>
</g>
<g>
</g>
<g>
</g>
<g>
</g>
<g>
</g>
<g>
</g>
<g>
</g>
</svg>
